<?xml version="1.0" standalone="no"?>
<!DOCTYPE svg PUBLIC "-//W3C//DTD SVG 20010904//EN"
 "http://www.w3.org/TR/2001/REC-SVG-20010904/DTD/svg10.dtd">
<svg version="1.0" xmlns="http://www.w3.org/2000/svg"
 width="900.000000pt" height="355.000000pt" viewBox="0 0 900.000000 355.000000"
 preserveAspectRatio="xMidYMid meet">

<g transform="translate(0.000000,355.000000) scale(0.100000,-0.100000)"
fill="#000000" stroke="none">
<path d="M1389 3163 c-488 -502 -931 -1200 -1055 -1660 -43 -163 -57 -383 -33
-519 32 -182 131 -371 250 -479 352 -318 962 -333 1774 -45 164 58 244 92 925
395 637 282 695 308 1300 575 190 84 500 221 690 305 493 218 1012 448 1820
805 1396 616 1639 724 1637 727 -2 1 -63 -15 -137 -36 -74 -21 -144 -41 -155
-43 -11 -3 -267 -73 -570 -156 -527 -144 -1387 -378 -1545 -421 -41 -11 -181
-49 -310 -85 -451 -124 -575 -158 -640 -176 -79 -21 -870 -237 -1640 -447
-937 -256 -1036 -282 -1170 -312 -160 -35 -289 -51 -426 -51 -386 0 -658 132
-807 390 -37 66 -64 155 -77 264 -31 244 60 602 249 985 28 57 50 106 48 108
-2 2 -60 -54 -128 -124z"/>
</g>
</svg>
